# xmcd
#
# Track frame offsets: 
#        150
#        14859
#        27523
#        40029
#        50414
#        62587
#        75073
#        86373
#        97368
#        107761
#        120883
#        132930
#        145411
#        157779
#        168737
#        182337
#        193958
#        205263
#        220029
#        231401
#
# Disc length: 3239 seconds
#
# Revision: 0
# Processed by: cddbd v1.5.2PL0 Copyright (c) Steve Scherf et al.
# Submitted via: ExactAudioCopyFreeDBPlugin 1.0
#
DISCID=100ca514
DTITLE=Sampler - Bluegrass Hit Festival CD05
DYEAR=1900
DGENRE=Bluegrass
TTITLE0=Bill Monroe - Mansions for me
TTITLE1=The Stanley Brothers - Say you won't be mine
TTITLE2=Lester Flatt and Earl Scruggs - I'd rather be alone
TTITLE3=Jimmy Martin - My lonely heart
TTITLE4=Bill Monroe - Wicked path of sin
TTITLE5=The Bailey Brothers - Beautiful brown eyes
TTITLE6=The Shenandoah Valley Boys - Ridin' the waves
TTITLE7=Jimmie Skinner - Ready to go home
TTITLE8=Lester Flatt and Earl Scruggs - Foggy mountain chimes
TTITLE9=Bill Monroe - Summertime is past and gone
TTITLE10=The Stanley Brothers - This weary heart you stole away
TTITLE11=Mattie, Martha and Minnie - Can't live with 'em
TTITLE12=Lester Flatt and Earl Scruggs - Someone took my place with yo
TTITLE12=u
TTITLE13=Jim and Jesse - I'll wash your love from my heart
TTITLE14=Bill Monroe - Little cabin home on the hill
TTITLE15=Jimmie SkinnerJimmie Skinner - Doin' my time
TTITLE16=Jim Eanes - Wiggle worm wiggle
TTITLE17=Lester Flatt and Earl Scruggs - Mother prays loud in her slee
TTITLE17=p
TTITLE18=The Stanley Brothers - I'm lonesome without you 
TTITLE19=Bill Monroe - Shine hallelujah shine
EXTD=
EXTT0=
EXTT1=
EXTT2=
EXTT3=
EXTT4=
EXTT5=
EXTT6=
EXTT7=
EXTT8=
EXTT9=
EXTT10=
EXTT11=
EXTT12=
EXTT13=
EXTT14=
EXTT15=
EXTT16=
EXTT17=
EXTT18=
EXTT19=
PLAYORDER=
